[00:38:03] gtkgui: HandBrake 1.4.1 (2021081700) - Linux x86_64 - https://handbrake.fr
[00:38:03] Compile-time hardening features are enabled
Cannot load libnvidia-encode.so.1
Cannot load libnvidia-encode.so.1
Cannot load libnvidia-encode.so.1
Cannot load libnvidia-encode.so.1
[00:38:03] hb_init: starting libhb thread
[00:38:03] hb_init: starting libhb thread
[00:38:03] hb_init: starting libhb thread
[00:38:05] CPU: Intel(R) Core(TM) i5-3427U CPU @ 1.80GHz
[00:38:05]  - Intel microarchitecture Ivy Bridge
[00:38:05]  - logical processor count: 4
[00:38:05] Intel Quick Sync Video support: no
[00:38:05] hb_scan: path=/home/fenris/Videos/Movies/Bridesmaids.mp4, title_index=0
udfread ERROR: ECMA 167 Volume Recognition failed
disc.c:333: failed opening UDF image /home/fenris/Videos/Movies/Bridesmaids.mp4
disc.c:437: error opening file BDMV/index.bdmv
disc.c:437: error opening file BDMV/BACKUP/index.bdmv
bluray.c:2646: nav_get_title_list(/home/fenris/Videos/Movies/Bridesmaids.mp4/) failed
[00:38:05] bd: not a bd - trying as a stream/file instead
libdvdread: DVDOpenFileUDF:UDFFindFile /VIDEO_TS/VIDEO_TS.IFO failed
libdvdnav: vm: vm: failed to read VIDEO_TS.IFO
[00:38:05] dvd: not a dvd - trying as a stream/file instead
Input #0, mov,mp4,m4a,3gp,3g2,mj2, from '/home/fenris/Videos/Movies/Bridesmaids.mp4':
  Metadata:
    major_brand     : isom
    minor_version   : 1
    compatible_brands: isomavc1
    creation_time   : 2011-09-07T09:19:13.000000Z
  Duration: 02:10:17.94, start: 0.000000, bitrate: 752 kb/s
  Stream #0:0(und): Video: h264 (High) (avc1 / 0x31637661), yuv420p, 1280x536 [SAR 1:1 DAR 160:67], 717 kb/s, 23.98 fps, 23.98 tbr, 96k tbn, 47.95 tbc (default)
    Metadata:
      creation_time   : 2011-09-07T09:19:13.000000Z
      vendor_id       : [0][0][0][0]
  Stream #0:1(und): Audio: aac (HE-AAC) (mp4a / 0x6134706D), 48000 Hz, stereo, fltp, 31 kb/s (default)
    Metadata:
      creation_time   : 2011-09-07T09:21:17.000000Z
      handler_name    : GPAC ISO Audio Handler
      vendor_id       : [0][0][0][0]
[00:38:05] scan: decoding previews for title 1
[00:38:05] scan: audio 0x1: aac, rate=48000Hz, bitrate=31997 Unknown (HE-AAC) (2.0 ch) (31 kbps)
[00:38:06] scan: 10 previews, 1280x536, 23.976 fps, autocrop = 0/0/0/0, aspect 2.39:1, PAR 1:1, color profile: 1-1-1
[00:38:06] libhb: scan thread found 1 valid title(s)
[00:38:06] decomb: deinterlaced 1 | blended 0 | unfiltered 0 | total 1
[00:38:06] decomb: deinterlaced 1 | blended 0 | unfiltered 0 | total 1
[00:38:39] decomb: deinterlaced 1 | blended 0 | unfiltered 0 | total 1
[00:38:56] gtkgui: Modified Preset: /General/Very Fast 720p30
[00:38:56] Starting work at: Sat Sep 25 00:38:56 2021

[00:38:56] 1 job(s) to process
[00:38:56] json job:
{
    "Audio": {
        "AudioList": [
            {
                "Bitrate": 160,
                "CompressionLevel": -1.0,
                "DRC": 0.0,
                "DitherMethod": "auto",
                "Encoder": "av_aac",
                "Gain": 0.0,
                "Mixdown": "stereo",
                "NormalizeMixLevel": false,
                "PresetEncoder": "av_aac",
                "Quality": -3.0,
                "Samplerate": 0,
                "Track": 0
            }
        ],
        "CopyMask": [
            "copy:aac"
        ],
        "FallbackEncoder": "av_aac"
    },
    "Destination": {
        "AlignAVStart": true,
        "ChapterList": [
            {
                "Duration": {
                    "Hours": 2,
                    "Minutes": 10,
                    "Seconds": 17,
                    "Ticks": 703614600
                },
                "Name": ""
            }
        ],
        "ChapterMarkers": false,
        "File": "/home/fenris/Videos/Bridesmaids.m4v",
        "InlineParameterSets": false,
        "Mp4Options": {
            "IpodAtom": false,
            "Mp4Optimize": false
        },
        "Mux": "m4v"
    },
    "Filters": {
        "FilterList": [
            {
                "ID": 3,
                "Settings": {
                    "block-height": "16",
                    "block-thresh": "80",
                    "block-width": "16",
                    "filter-mode": "1",
                    "mode": "0",
                    "motion-thresh": "2",
                    "spatial-metric": "2",
                    "spatial-thresh": "3"
                }
            },
            {
                "ID": 4,
                "Settings": {
                    "mode": "7"
                }
            },
            {
                "ID": 6,
                "Settings": {
                    "mode": 2,
                    "rate": "27000000/900000"
                }
            },
            {
                "ID": 13,
                "Settings": {
                    "crop-bottom": 0,
                    "crop-left": 0,
                    "crop-right": 0,
                    "crop-top": 0,
                    "height": 536,
                    "width": 1280
                }
            }
        ]
    },
    "Metadata": {
        "Name": "Bridesmaids"
    },
    "PAR": {
        "Den": 1,
        "Num": 1
    },
    "SequenceID": 0,
    "Source": {
        "Angle": 0,
        "Path": "/home/fenris/Videos/Movies/Bridesmaids.mp4",
        "Range": {
            "End": 1,
            "Start": 1,
            "Type": "chapter"
        },
        "Title": 1
    },
    "Subtitle": {
        "Search": {
            "Burn": true,
            "Default": false,
            "Enable": false,
            "Forced": false
        },
        "SubtitleList": []
    },
    "Video": {
        "ColorFormat": 0,
        "ColorMatrix": 1,
        "ColorPrimaries": 1,
        "ColorRange": 0,
        "ColorTransfer": 1,
        "Encoder": "x264",
        "Level": "3.1",
        "Options": "",
        "Preset": "veryfast",
        "Profile": "main",
        "QSV": {
            "AdapterIndex": 1,
            "AsyncDepth": 0,
            "Decode": false
        },
        "Quality": 23.0,
        "Tune": "",
        "Turbo": false,
        "TwoPass": false
    }
}
[00:38:56] CPU: Intel(R) Core(TM) i5-3427U CPU @ 1.80GHz
[00:38:56]  - Intel microarchitecture Ivy Bridge
[00:38:56]  - logical processor count: 4
[00:38:56] Intel Quick Sync Video support: no
[00:38:56] hb_scan: path=/home/fenris/Videos/Movies/Bridesmaids.mp4, title_index=1
udfread ERROR: ECMA 167 Volume Recognition failed
disc.c:333: failed opening UDF image /home/fenris/Videos/Movies/Bridesmaids.mp4
disc.c:437: error opening file BDMV/index.bdmv
disc.c:437: error opening file BDMV/BACKUP/index.bdmv
bluray.c:2646: nav_get_title_list(/home/fenris/Videos/Movies/Bridesmaids.mp4/) failed
[00:38:56] bd: not a bd - trying as a stream/file instead
libdvdread: DVDOpenFileUDF:UDFFindFile /VIDEO_TS/VIDEO_TS.IFO failed
libdvdnav: vm: vm: failed to read VIDEO_TS.IFO
[00:38:56] dvd: not a dvd - trying as a stream/file instead
Input #0, mov,mp4,m4a,3gp,3g2,mj2, from '/home/fenris/Videos/Movies/Bridesmaids.mp4':
  Metadata:
    major_brand     : isom
    minor_version   : 1
    compatible_brands: isomavc1
    creation_time   : 2011-09-07T09:19:13.000000Z
  Duration: 02:10:17.94, start: 0.000000, bitrate: 752 kb/s
  Stream #0:0(und): Video: h264 (High) (avc1 / 0x31637661), yuv420p, 1280x536 [SAR 1:1 DAR 160:67], 717 kb/s, 23.98 fps, 23.98 tbr, 96k tbn, 47.95 tbc (default)
    Metadata:
      creation_time   : 2011-09-07T09:19:13.000000Z
      vendor_id       : [0][0][0][0]
  Stream #0:1(und): Audio: aac (HE-AAC) (mp4a / 0x6134706D), 48000 Hz, stereo, fltp, 31 kb/s (default)
    Metadata:
      creation_time   : 2011-09-07T09:21:17.000000Z
      handler_name    : GPAC ISO Audio Handler
      vendor_id       : [0][0][0][0]
[00:38:56] scan: decoding previews for title 1
[00:38:56] scan: audio 0x1: aac, rate=48000Hz, bitrate=31997 Unknown (HE-AAC) (2.0 ch) (31 kbps)
[00:38:56] scan: 10 previews, 1280x536, 23.976 fps, autocrop = 0/0/0/0, aspect 2.39:1, PAR 1:1, color profile: 1-1-1
[00:38:56] libhb: scan thread found 1 valid title(s)
[00:38:56] Starting Task: Encoding Pass
[00:38:56] Skipping crop/scale filter
[00:38:56] job configuration:
[00:38:56]  * source
[00:38:56]    + /home/fenris/Videos/Movies/Bridesmaids.mp4
[00:38:56]    + title 1, chapter(s) 1 to 1
[00:38:56]    + container: mov,mp4,m4a,3gp,3g2,mj2
[00:38:56]    + data rate: 752 kbps
[00:38:56]  * destination
[00:38:56]    + /home/fenris/Videos/Bridesmaids.m4v
[00:38:56]    + container: MPEG-4 (libavformat)
[00:38:56]      + align initial A/V stream timestamps
[00:38:56]  * video track
[00:38:56]    + decoder: h264 8-bit
[00:38:56]      + bitrate 717 kbps
[00:38:56]    + filters
[00:38:56]      + Comb Detect (mode=0:spatial-metric=2:motion-thresh=2:spatial-thresh=3:filter-mode=1:block-thresh=80:block-width=16:block-height=16)
[00:38:56]      + Decomb (mode=39)
[00:38:56]      + Framerate Shaper (mode=2:rate=27000000/900000)
[00:38:56]        + frame rate: 23.976 fps -> peak rate limited to 30.000 fps
[00:38:56]    + Output geometry
[00:38:56]      + storage dimensions: 1280 x 536
[00:38:56]      + pixel aspect ratio: 1 : 1
[00:38:56]      + display dimensions: 1280 x 536
[00:38:56]    + encoder: H.264 (libx264)
[00:38:56]      + preset:  veryfast
[00:38:56]      + profile: main
[00:38:56]      + level:   3.1
[00:38:56]      + quality: 23.00 (RF)
[00:38:56]      + color profile: 1-1-1
[00:38:56]  * audio track 1
[00:38:56]    + decoder: Unknown (HE-AAC) (2.0 ch) (31 kbps) (track 1, id 0x1)
[00:38:56]      + bitrate: 31 kbps, samplerate: 48000 Hz
[00:38:56]    + mixdown: Stereo
[00:38:56]    + encoder: AAC (libavcodec)
[00:38:56]      + bitrate: 160 kbps, samplerate: 48000 Hz
[00:38:56] sync: expecting 187443 video frames
[00:38:56] encx264: min-keyint: 24, keyint: 240
[00:38:56] encx264: encoding at constant RF 23.000000
[00:38:56] encx264: unparsed options: level=3.1:ref=1:8x8dct=0:weightp=1:subme=2:mixed-refs=0:trellis=0:vbv-bufsize=14000:vbv-maxrate=14000:rc-lookahead=10
x264 [info]: using SAR=1/1
x264 [info]: using cpu capabilities: MMX2 SSE2Fast SSSE3 SSE4.2 AVX
x264 [info]: profile Main, level 3.1, 4:2:0, 8-bit
[00:38:57] sync: first pts video is 0
[00:38:57] sync: first pts audio 0x1 is 0
[00:38:57] sync: Chapter 1 at frame 3 time 11261
[00:39:42] decomb: deinterlaced 1 | blended 0 | unfiltered 0 | total 1
[00:39:47] work: average encoding speed for job is 30.258537 fps
[00:39:47] comb detect: heavy 0 | light 57 | uncombed 1458 | total 1515
[00:39:47] decomb: deinterlaced 0 | blended 57 | unfiltered 1449 | total 1506
[00:39:47] vfr: 1498 frames output, 0 dropped and 0 duped for CFR/PFR
[00:39:47] vfr: lost time: 0 (0 frames)
[00:39:47] vfr: gained time: 0 (0 frames) (0 not accounted for)
[00:39:47] aac-decoder done: 1562 frames, 0 decoder errors
[00:39:47] h264-decoder done: 1568 frames, 0 decoder errors
[00:39:47] sync: got 1531 frames, 187443 expected
[00:39:47] sync: framerate min 11.988 fps, max 23.976 fps, avg 23.960 fps
x264 [info]: frame I:15    Avg QP:15.70  size: 15736
x264 [info]: frame P:620   Avg QP:20.42  size:  9053
x264 [info]: frame B:839   Avg QP:21.01  size:  1933
x264 [info]: consecutive B-frames: 20.1% 10.0%  5.1% 64.8%
x264 [info]: mb I  I16..4: 70.4%  0.0% 29.6%
x264 [info]: mb P  I16..4: 21.2%  0.0%  7.9%  P16..4: 20.5%  9.0%  3.7%  0.0%  0.0%    skip:37.7%
x264 [info]: mb B  I16..4:  2.0%  0.0%  0.5%  B16..8:  9.8%  3.0%  0.3%  direct: 3.6%  skip:80.7%  L0:43.5% L1:43.7% BI:12.8%
x264 [info]: coded y,uvDC,uvAC intra: 25.1% 51.9% 11.6% inter: 4.2% 9.2% 0.3%
x264 [info]: i16 v,h,dc,p: 45% 23% 16% 16%
x264 [info]: i4 v,h,dc,ddl,ddr,vr,hd,vl,hu: 27% 19% 24%  5%  7%  6%  5%  4%  3%
x264 [info]: i8c dc,h,v,p: 54% 19% 20%  7%
x264 [info]: Weighted P-Frames: Y:10.3% UV:8.4%
x264 [info]: kb/s:971.47
[00:39:47] mux: track 0, 1473 frames, 7463694 bytes, 935.07 kbps, fifo 2048
[00:39:47] mux: track 1, 2993 frames, 1234608 bytes, 154.68 kbps, fifo 4096
[00:39:47] Finished work at: Sat Sep 25 00:39:47 2021

[00:39:47] libhb: work result = 1
[00:39:55] decomb: deinterlaced 1 | blended 0 | unfiltered 0 | total 1
[00:39:57] decomb: deinterlaced 1 | blended 0 | unfiltered 0 | total 1
[00:40:39] gtkgui: Modified Preset: /General/Very Fast 720p30
[00:40:39] Starting work at: Sat Sep 25 00:40:39 2021

[00:40:39] 1 job(s) to process
[00:40:39] json job:
{
    "Audio": {
        "AudioList": [
            {
                "Bitrate": 160,
                "CompressionLevel": -1.0,
                "DRC": 0.0,
                "DitherMethod": "auto",
                "Encoder": "av_aac",
                "Gain": 0.0,
                "Mixdown": "stereo",
                "NormalizeMixLevel": false,
                "PresetEncoder": "av_aac",
                "Quality": -3.0,
                "Samplerate": 0,
                "Track": 0
            }
        ],
        "CopyMask": [
            "copy:aac"
        ],
        "FallbackEncoder": "av_aac"
    },
    "Destination": {
        "AlignAVStart": true,
        "ChapterList": [
            {
                "Duration": {
                    "Hours": 2,
                    "Minutes": 10,
                    "Seconds": 17,
                    "Ticks": 703614600
                },
                "Name": ""
            }
        ],
        "ChapterMarkers": false,
        "File": "/home/fenris/Videos/Bridesmaids.m4v",
        "InlineParameterSets": false,
        "Mp4Options": {
            "IpodAtom": false,
            "Mp4Optimize": false
        },
        "Mux": "m4v"
    },
    "Filters": {
        "FilterList": [
            {
                "ID": 3,
                "Settings": {
                    "block-height": "16",
                    "block-thresh": "80",
                    "block-width": "16",
                    "filter-mode": "1",
                    "mode": "0",
                    "motion-thresh": "2",
                    "spatial-metric": "2",
                    "spatial-thresh": "3"
                }
            },
            {
                "ID": 4,
                "Settings": {
                    "mode": "7"
                }
            },
            {
                "ID": 6,
                "Settings": {
                    "mode": 2,
                    "rate": "27000000/1080000"
                }
            },
            {
                "ID": 13,
                "Settings": {
                    "crop-bottom": 0,
                    "crop-left": 0,
                    "crop-right": 0,
                    "crop-top": 0,
                    "height": 536,
                    "width": 720
                }
            }
        ]
    },
    "Metadata": {
        "Name": "Bridesmaids"
    },
    "PAR": {
        "Den": 9,
        "Num": 16
    },
    "SequenceID": 0,
    "Source": {
        "Angle": 0,
        "Path": "/home/fenris/Videos/Movies/Bridesmaids.mp4",
        "Range": {
            "End": 1,
            "Start": 1,
            "Type": "chapter"
        },
        "Title": 1
    },
    "Subtitle": {
        "Search": {
            "Burn": true,
            "Default": false,
            "Enable": false,
            "Forced": false
        },
        "SubtitleList": []
    },
    "Video": {
        "ColorFormat": 0,
        "ColorMatrix": 1,
        "ColorPrimaries": 1,
        "ColorRange": 0,
        "ColorTransfer": 1,
        "Encoder": "x264",
        "Level": "3.1",
        "Options": "",
        "Preset": "veryfast",
        "Profile": "main",
        "QSV": {
            "AdapterIndex": 1,
            "AsyncDepth": 0,
            "Decode": false
        },
        "Quality": 23.0,
        "Tune": "",
        "Turbo": false,
        "TwoPass": false
    }
}
[00:40:39] CPU: Intel(R) Core(TM) i5-3427U CPU @ 1.80GHz
[00:40:39]  - Intel microarchitecture Ivy Bridge
[00:40:39]  - logical processor count: 4
[00:40:39] Intel Quick Sync Video support: no
[00:40:39] hb_scan: path=/home/fenris/Videos/Movies/Bridesmaids.mp4, title_index=1
udfread ERROR: ECMA 167 Volume Recognition failed
disc.c:333: failed opening UDF image /home/fenris/Videos/Movies/Bridesmaids.mp4
disc.c:437: error opening file BDMV/index.bdmv
disc.c:437: error opening file BDMV/BACKUP/index.bdmv
bluray.c:2646: nav_get_title_list(/home/fenris/Videos/Movies/Bridesmaids.mp4/) failed
[00:40:39] bd: not a bd - trying as a stream/file instead
libdvdread: DVDOpenFileUDF:UDFFindFile /VIDEO_TS/VIDEO_TS.IFO failed
libdvdnav: vm: vm: failed to read VIDEO_TS.IFO
[00:40:39] dvd: not a dvd - trying as a stream/file instead
Input #0, mov,mp4,m4a,3gp,3g2,mj2, from '/home/fenris/Videos/Movies/Bridesmaids.mp4':
  Metadata:
    major_brand     : isom
    minor_version   : 1
    compatible_brands: isomavc1
    creation_time   : 2011-09-07T09:19:13.000000Z
  Duration: 02:10:17.94, start: 0.000000, bitrate: 752 kb/s
  Stream #0:0(und): Video: h264 (High) (avc1 / 0x31637661), yuv420p, 1280x536 [SAR 1:1 DAR 160:67], 717 kb/s, 23.98 fps, 23.98 tbr, 96k tbn, 47.95 tbc (default)
    Metadata:
      creation_time   : 2011-09-07T09:19:13.000000Z
      vendor_id       : [0][0][0][0]
  Stream #0:1(und): Audio: aac (HE-AAC) (mp4a / 0x6134706D), 48000 Hz, stereo, fltp, 31 kb/s (default)
    Metadata:
      creation_time   : 2011-09-07T09:21:17.000000Z
      handler_name    : GPAC ISO Audio Handler
      vendor_id       : [0][0][0][0]
[00:40:39] scan: decoding previews for title 1
[00:40:39] scan: audio 0x1: aac, rate=48000Hz, bitrate=31997 Unknown (HE-AAC) (2.0 ch) (31 kbps)
[00:40:40] scan: 10 previews, 1280x536, 23.976 fps, autocrop = 0/0/0/0, aspect 2.39:1, PAR 1:1, color profile: 1-1-1
[00:40:40] libhb: scan thread found 1 valid title(s)
[00:40:40] Starting Task: Encoding Pass
[00:40:40] job configuration:
[00:40:40]  * source
[00:40:40]    + /home/fenris/Videos/Movies/Bridesmaids.mp4
[00:40:40]    + title 1, chapter(s) 1 to 1
[00:40:40]    + container: mov,mp4,m4a,3gp,3g2,mj2
[00:40:40]    + data rate: 752 kbps
[00:40:40]  * destination
[00:40:40]    + /home/fenris/Videos/Bridesmaids.m4v
[00:40:40]    + container: MPEG-4 (libavformat)
[00:40:40]      + align initial A/V stream timestamps
[00:40:40]  * video track
[00:40:40]    + decoder: h264 8-bit
[00:40:40]      + bitrate 717 kbps
[00:40:40]    + filters
[00:40:40]      + Comb Detect (mode=0:spatial-metric=2:motion-thresh=2:spatial-thresh=3:filter-mode=1:block-thresh=80:block-width=16:block-height=16)
[00:40:40]      + Decomb (mode=39)
[00:40:40]      + Framerate Shaper (mode=2:rate=27000000/1080000)
[00:40:40]        + frame rate: 23.976 fps -> peak rate limited to 25.000 fps
[00:40:40]      + Crop and Scale (width=720:height=536:crop-top=0:crop-bottom=0:crop-left=0:crop-right=0)
[00:40:40]        + source: 1280 * 536, crop (0/0/0/0): 1280 * 536, scale: 720 * 536
[00:40:40]    + Output geometry
[00:40:40]      + storage dimensions: 720 x 536
[00:40:40]      + pixel aspect ratio: 16 : 9
[00:40:40]      + display dimensions: 1280 x 536
[00:40:40]    + encoder: H.264 (libx264)
[00:40:40]      + preset:  veryfast
[00:40:40]      + profile: main
[00:40:40]      + level:   3.1
[00:40:40]      + quality: 23.00 (RF)
[00:40:40]      + color profile: 1-1-1
[00:40:40]  * audio track 1
[00:40:40]    + decoder: Unknown (HE-AAC) (2.0 ch) (31 kbps) (track 1, id 0x1)
[00:40:40]      + bitrate: 31 kbps, samplerate: 48000 Hz
[00:40:40]    + mixdown: Stereo
[00:40:40]    + encoder: AAC (libavcodec)
[00:40:40]      + bitrate: 160 kbps, samplerate: 48000 Hz
[00:40:40] sync: expecting 187443 video frames
[00:40:40] encx264: min-keyint: 24, keyint: 240
[00:40:40] encx264: encoding at constant RF 23.000000
[00:40:40] encx264: unparsed options: level=3.1:ref=1:8x8dct=0:weightp=1:subme=2:mixed-refs=0:trellis=0:vbv-bufsize=14000:vbv-maxrate=14000:rc-lookahead=10
x264 [info]: using SAR=16/9
x264 [info]: using cpu capabilities: MMX2 SSE2Fast SSSE3 SSE4.2 AVX
x264 [info]: profile Main, level 3.1, 4:2:0, 8-bit
[00:40:40] sync: first pts video is 0
[00:40:40] sync: first pts audio 0x1 is 0
[00:40:40] sync: Chapter 1 at frame 3 time 11261
[00:44:13] work: average encoding speed for job is 40.060261 fps
[00:44:13] comb detect: heavy 104 | light 329 | uncombed 8087 | total 8520
[00:44:13] decomb: deinterlaced 104 | blended 329 | unfiltered 8078 | total 8511
[00:44:13] vfr: 8502 frames output, 0 dropped and 0 duped for CFR/PFR
[00:44:13] vfr: lost time: 0 (0 frames)
[00:44:13] vfr: gained time: 0 (0 frames) (0 not accounted for)
[00:44:13] aac-decoder done: 8390 frames, 0 decoder errors
[00:44:13] h264-decoder done: 8574 frames, 0 decoder errors
[00:44:13] sync: got 8535 frames, 187443 expected
[00:44:13] sync: framerate min 11.988 fps, max 23.976 fps, avg 23.973 fps
x264 [info]: frame I:88    Avg QP:19.17  size: 32030
x264 [info]: frame P:2432  Avg QP:22.44  size:  6222
x264 [info]: frame B:5953  Avg QP:25.05  size:  1359
x264 [info]: consecutive B-frames:  3.6%  6.4%  5.5% 84.6%
x264 [info]: mb I  I16..4: 33.0%  0.0% 67.0%
x264 [info]: mb P  I16..4: 10.9%  0.0%  6.8%  P16..4: 26.8% 13.1%  6.5%  0.0%  0.0%    skip:36.0%
x264 [info]: mb B  I16..4:  1.3%  0.0%  0.5%  B16..8: 11.4%  4.5%  0.5%  direct: 4.0%  skip:77.8%  L0:37.5% L1:46.3% BI:16.2%
x264 [info]: coded y,uvDC,uvAC intra: 42.6% 56.3% 17.5% inter: 5.6% 5.7% 0.1%
x264 [info]: i16 v,h,dc,p: 50% 17% 18% 15%
x264 [info]: i4 v,h,dc,ddl,ddr,vr,hd,vl,hu: 36% 12% 17%  5%  6%  9%  4%  7%  3%
x264 [info]: i8c dc,h,v,p: 51% 14% 29%  6%
x264 [info]: Weighted P-Frames: Y:2.7% UV:1.9%
x264 [info]: kb/s:589.37
[00:44:13] mux: track 0, 8472 frames, 26025396 bytes, 584.74 kbps, fifo 4096
[00:44:13] mux: track 1, 16689 frames, 7143067 bytes, 160.49 kbps, fifo 8192
[00:44:13] Finished work at: Sat Sep 25 00:44:13 2021

[00:44:13] libhb: work result = 1
